<?xml version="1.0" encoding="UTF-8"?>
<svg id="Layer_1" data-name="Layer 1" xmlns="http://www.w3.org/2000/svg" xmlns:xlink="http://www.w3.org/1999/xlink" viewBox="0 0 1904.11 350">
  <defs>
    <style>
      .cls-1 {
        filter: url(#drop-shadow-1);
      }

      .cls-2 {
        filter: url(#drop-shadow-3);
      }

      .cls-3 {
        filter: url(#drop-shadow-2);
      }

      .cls-4 {
        filter: url(#drop-shadow-5);
      }

      .cls-5 {
        filter: url(#drop-shadow-4);
      }

      .cls-6 {
        fill: #d4145a;
      }

      .cls-7 {
        fill: gray;
      }

      .cls-8 {
        fill: none;
        stroke: gray;
        stroke-miterlimit: 10;
        stroke-width: 10px;
      }

      .cls-9, .cls-10 {
        fill: #4d4d4d;
      }

      .cls-10 {
        letter-spacing: 0em;
      }

      .cls-11 {
        font-family: BalooBhaijaan-Regular, 'Baloo Bhaijaan';
        font-size: 211.04px;
      }
    </style>
    <filter id="drop-shadow-1" x="77.81" y="140.39" width="113.22" height="113.22" filterUnits="userSpaceOnUse">
      <feOffset dx="0" dy="7"/>
      <feGaussianBlur result="blur" stdDeviation="5"/>
      <feFlood flood-color="#000" flood-opacity=".5"/>
      <feComposite in2="blur" operator="in"/>
      <feComposite in="SourceGraphic"/>
    </filter>
    <filter id="drop-shadow-2" x="377.1" y="137.6" width="34.46" height="34.46" filterUnits="userSpaceOnUse">
      <feOffset dx="0" dy="7"/>
      <feGaussianBlur result="blur-2" stdDeviation="5"/>
      <feFlood flood-color="#000" flood-opacity=".5"/>
      <feComposite in2="blur-2" operator="in"/>
      <feComposite in="SourceGraphic"/>
    </filter>
    <filter id="drop-shadow-3" x="377.1" y="207" width="34.46" height="34.46" filterUnits="userSpaceOnUse">
      <feOffset dx="0" dy="7"/>
      <feGaussianBlur result="blur-3" stdDeviation="5"/>
      <feFlood flood-color="#000" flood-opacity=".5"/>
      <feComposite in2="blur-3" operator="in"/>
      <feComposite in="SourceGraphic"/>
    </filter>
    <filter id="drop-shadow-4" x="411.8" y="172.3" width="34.46" height="34.46" filterUnits="userSpaceOnUse">
      <feOffset dx="0" dy="7"/>
      <feGaussianBlur result="blur-4" stdDeviation="5"/>
      <feFlood flood-color="#000" flood-opacity=".5"/>
      <feComposite in2="blur-4" operator="in"/>
      <feComposite in="SourceGraphic"/>
    </filter>
    <filter id="drop-shadow-5" x="341.86" y="171.73" width="34.46" height="34.46" filterUnits="userSpaceOnUse">
      <feOffset dx="0" dy="7"/>
      <feGaussianBlur result="blur-5" stdDeviation="5"/>
      <feFlood flood-color="#000" flood-opacity=".5"/>
      <feComposite in2="blur-5" operator="in"/>
      <feComposite in="SourceGraphic"/>
    </filter>
  </defs>
  <path class="cls-7" d="M308.33,70.16h-92.58s0-15.19,0-15.19c0-8.34,6.76-15.1,15.1-15.1h62.38c8.34,0,15.1,6.76,15.1,15.1v15.19Z"/>
  <path class="cls-6" d="M510.41,229.75l-12.57.18c-7,17.99-18.5,33.54-33.01,45.45l3.74,12.03c9.85,31.8-33.96,51.34-51.03,22.76l-6.44-10.79c-9.17,1.4-18.67,1.65-28.31.64-9.65-1.01-18.88-3.22-27.57-6.48l-8.53,9.23c-22.62,24.44-61.45-3.74-45.22-32.82l6.13-11c-11.72-14.65-19.75-32.24-22.89-51.29l-12.26-2.78c-32.47-7.37-27.48-55.07,5.81-55.57l12.57-.18c7-17.99,18.5-33.54,33-45.45l-3.72-12.03c-9.86-31.8,33.95-51.35,51.03-22.76l6.44,10.79c9.17-1.4,18.67-1.65,28.31-.64s18.88,3.22,27.57,6.48l8.53-9.23c22.61-24.44,61.43,3.74,45.22,32.82l-6.14,11c11.73,14.65,19.77,32.24,22.9,51.29l12.26,2.78c32.47,7.37,27.48,55.07-5.81,55.57Z"/>
  <path class="cls-6" d="M232.16,263.96l-12-3.75c-12.27,14.91-28.04,26.1-45.54,32.88l-.2,12.6c-.56,33.28-48.29,38.19-55.58,5.7l-2.75-12.26c-9.15-1.54-18.25-4.25-27.1-8.22-8.85-3.97-16.94-8.95-24.17-14.76l-10.99,6.1c-29.12,16.16-57.21-22.72-32.73-45.29l9.26-8.54c-6.57-17.57-8.71-36.79-5.74-55.87l-10.78-6.46c-28.55-17.13-8.93-60.9,22.85-50.99l12,3.75c12.27-14.91,28.04-26.1,45.53-32.89l.21-12.59c.55-33.29,48.27-38.19,55.58-5.7l2.75,12.26c9.15,1.54,18.25,4.25,27.1,8.22s16.94,8.95,24.17,14.76l10.99-6.1c29.1-16.17,57.2,22.72,32.73,45.29l-9.27,8.53c6.58,17.58,8.72,36.79,5.76,55.87l10.78,6.46c28.55,17.13,8.93,60.9-22.85,50.99Z"/>
  <path class="cls-7" d="M278.34,247.21c-2.19,7.92-6.79,15.14-12.95,20.33-6.86,5.78-15.2,8.83-24.12,8.83-4.08,0-8.25-.65-12.38-1.94l-5.19-1.62c-10.79,11.56-23.8,20.96-38.23,27.6l-.09,5.47c-.03,1.84-.19,3.65-.44,5.43h113.41c-2.51-2.46-4.71-5.24-6.5-8.3-6.97-11.87-6.96-25.87.03-38.39l2.66-4.78c-6.38-9.05-11.48-18.92-15.19-29.29.85,5.36.56,11.01-1.01,16.66Z"/>
  <path class="cls-7" d="M308.22,76.28h-128.28c1.48.6,2.95,1.21,4.41,1.87,7.25,3.25,14.15,7.18,20.58,11.72l4.76-2.64c6.22-3.45,12.73-5.21,19.37-5.21,15.72,0,30.3,10.3,36.29,25.62,2.75,7.04,3.42,14.54,1.94,21.69-.9,4.35-2.6,8.51-5.02,12.35,4.8-2.11,10.12-3.25,15.82-3.34l5.44-.08c6.64-14.35,16.07-27.34,27.7-38.15l-1.62-5.22c-1.97-6.34-2.41-12.64-1.4-18.62Z"/>
  <g class="cls-1">
    <path d="M191.03,197h0c0,7.82-6.34,14.15-14.15,14.15h-14.15c-7.82,0-14.15,6.34-14.15,14.15v14.15c0,7.82-6.34,14.15-14.15,14.15h0c-7.82,0-14.15-6.34-14.15-14.15v-14.15c0-7.82-6.34-14.15-14.15-14.15h-14.15c-7.82,0-14.15-6.34-14.15-14.15h0c0-7.82,6.34-14.15,14.15-14.15h14.15c7.82,0,14.15-6.34,14.15-14.15v-14.15c0-7.82,6.34-14.15,14.15-14.15h0c7.82,0,14.15,6.34,14.15,14.15v14.15c0,7.82,6.34,14.15,14.15,14.15h14.15c7.82,0,14.15,6.34,14.15,14.15Z"/>
  </g>
  <g class="cls-3">
    <circle cx="394.33" cy="154.83" r="17.23"/>
  </g>
  <g class="cls-2">
    <circle cx="394.33" cy="224.23" r="17.23"/>
  </g>
  <g class="cls-5">
    <circle cx="429.03" cy="189.53" r="17.23"/>
  </g>
  <g class="cls-4">
    <circle cx="359.09" cy="188.96" r="17.23"/>
  </g>
  <line class="cls-8" x1="262.04" y1="35.86" x2="262.04"/>
  <text class="cls-11" transform="translate(560 253.56)"><tspan class="cls-10" x="0" y="0">t</tspan><tspan class="cls-9" x="83.15" y="0">echnic</tspan><tspan class="cls-6" x="711.42" y="0">games</tspan></text>
</svg>