<?xml version="1.0" encoding="UTF-8"?>
<svg id="Layer_1" data-name="Layer 1" xmlns="http://www.w3.org/2000/svg" xmlns:xlink="http://www.w3.org/1999/xlink" viewBox="0 0 1904.11 350">
  <defs>
    <style>
      .cls-1 {
        filter: url(#drop-shadow-1);
      }

      .cls-2 {
        filter: url(#drop-shadow-3);
      }

      .cls-3 {
        filter: url(#drop-shadow-2);
      }

      .cls-4 {
        filter: url(#drop-shadow-5);
      }

      .cls-5 {
        filter: url(#drop-shadow-4);
      }

      .cls-6 {
        fill: #d4145a;
      }

      .cls-7 {
        fill: gray;
      }

      .cls-8 {
        fill: none;
        stroke: gray;
        stroke-miterlimit: 10;
        stroke-width: 10px;
      }

      .cls-9, .cls-10 {
        fill: #4d4d4d;
      }
    </style>
    <filter id="drop-shadow-1" x="77.81" y="140.39" width="113.22" height="113.22" filterUnits="userSpaceOnUse">
      <feOffset dx="0" dy="7"/>
      <feGaussianBlur result="blur" stdDeviation="5"/>
      <feFlood flood-color="#000" flood-opacity=".5"/>
      <feComposite in2="blur" operator="in"/>
      <feComposite in="SourceGraphic"/>
    </filter>
    <filter id="drop-shadow-2" x="377.1" y="137.6" width="34.46" height="34.46" filterUnits="userSpaceOnUse">
      <feOffset dx="0" dy="7"/>
      <feGaussianBlur result="blur-2" stdDeviation="5"/>
      <feFlood flood-color="#000" flood-opacity=".5"/>
      <feComposite in2="blur-2" operator="in"/>
      <feComposite in="SourceGraphic"/>
    </filter>
    <filter id="drop-shadow-3" x="377.1" y="207" width="34.46" height="34.46" filterUnits="userSpaceOnUse">
      <feOffset dx="0" dy="7"/>
      <feGaussianBlur result="blur-3" stdDeviation="5"/>
      <feFlood flood-color="#000" flood-opacity=".5"/>
      <feComposite in2="blur-3" operator="in"/>
      <feComposite in="SourceGraphic"/>
    </filter>
    <filter id="drop-shadow-4" x="411.8" y="172.3" width="34.46" height="34.46" filterUnits="userSpaceOnUse">
      <feOffset dx="0" dy="7"/>
      <feGaussianBlur result="blur-4" stdDeviation="5"/>
      <feFlood flood-color="#000" flood-opacity=".5"/>
      <feComposite in2="blur-4" operator="in"/>
      <feComposite in="SourceGraphic"/>
    </filter>
    <filter id="drop-shadow-5" x="341.86" y="171.73" width="34.46" height="34.46" filterUnits="userSpaceOnUse">
      <feOffset dx="0" dy="7"/>
      <feGaussianBlur result="blur-5" stdDeviation="5"/>
      <feFlood flood-color="#000" flood-opacity=".5"/>
      <feComposite in2="blur-5" operator="in"/>
      <feComposite in="SourceGraphic"/>
    </filter>
  </defs>
  <path class="cls-7" d="M308.33,70.16h-92.58s0-15.19,0-15.19c0-8.34,6.76-15.1,15.1-15.1h62.38c8.34,0,15.1,6.76,15.1,15.1v15.19Z"/>
  <path class="cls-6" d="M510.41,229.75l-12.57.18c-7,17.99-18.5,33.54-33.01,45.45l3.74,12.03c9.85,31.8-33.96,51.34-51.03,22.76l-6.44-10.79c-9.17,1.4-18.67,1.65-28.31.64-9.65-1.01-18.88-3.22-27.57-6.48l-8.53,9.23c-22.62,24.44-61.45-3.74-45.22-32.82l6.13-11c-11.72-14.65-19.75-32.24-22.89-51.29l-12.26-2.78c-32.47-7.37-27.48-55.07,5.81-55.57l12.57-.18c7-17.99,18.5-33.54,33-45.45l-3.72-12.03c-9.86-31.8,33.95-51.35,51.03-22.76l6.44,10.79c9.17-1.4,18.67-1.65,28.31-.64s18.88,3.22,27.57,6.48l8.53-9.23c22.61-24.44,61.43,3.74,45.22,32.82l-6.14,11c11.73,14.65,19.77,32.24,22.9,51.29l12.26,2.78c32.47,7.37,27.48,55.07-5.81,55.57Z"/>
  <path class="cls-6" d="M232.16,263.96l-12-3.75c-12.27,14.91-28.04,26.1-45.54,32.88l-.2,12.6c-.56,33.28-48.29,38.19-55.58,5.7l-2.75-12.26c-9.15-1.54-18.25-4.25-27.1-8.22-8.85-3.97-16.94-8.95-24.17-14.76l-10.99,6.1c-29.12,16.16-57.21-22.72-32.73-45.29l9.26-8.54c-6.57-17.57-8.71-36.79-5.74-55.87l-10.78-6.46c-28.55-17.13-8.93-60.9,22.85-50.99l12,3.75c12.27-14.91,28.04-26.1,45.53-32.89l.21-12.59c.55-33.29,48.27-38.19,55.58-5.7l2.75,12.26c9.15,1.54,18.25,4.25,27.1,8.22s16.94,8.95,24.17,14.76l10.99-6.1c29.1-16.17,57.2,22.72,32.73,45.29l-9.27,8.53c6.58,17.58,8.72,36.79,5.76,55.87l10.78,6.46c28.55,17.13,8.93,60.9-22.85,50.99Z"/>
  <path class="cls-7" d="M278.34,247.21c-2.19,7.92-6.79,15.14-12.95,20.33-6.86,5.78-15.2,8.83-24.12,8.83-4.08,0-8.25-.65-12.38-1.94l-5.19-1.62c-10.79,11.56-23.8,20.96-38.23,27.6l-.09,5.47c-.03,1.84-.19,3.65-.44,5.43h113.41c-2.51-2.46-4.71-5.24-6.5-8.3-6.97-11.87-6.96-25.87.03-38.39l2.66-4.78c-6.38-9.05-11.48-18.92-15.19-29.29.85,5.36.56,11.01-1.01,16.66Z"/>
  <path class="cls-7" d="M308.22,76.28h-128.28c1.48.6,2.95,1.21,4.41,1.87,7.25,3.25,14.15,7.18,20.58,11.72l4.76-2.64c6.22-3.45,12.73-5.21,19.37-5.21,15.72,0,30.3,10.3,36.29,25.62,2.75,7.04,3.42,14.54,1.94,21.69-.9,4.35-2.6,8.51-5.02,12.35,4.8-2.11,10.12-3.25,15.82-3.34l5.44-.08c6.64-14.35,16.07-27.34,27.7-38.15l-1.62-5.22c-1.97-6.34-2.41-12.64-1.4-18.62Z"/>
  <g class="cls-1">
    <path d="M191.03,197h0c0,7.82-6.34,14.15-14.15,14.15h-14.15c-7.82,0-14.15,6.34-14.15,14.15v14.15c0,7.82-6.34,14.15-14.15,14.15h0c-7.82,0-14.15-6.34-14.15-14.15v-14.15c0-7.82-6.34-14.15-14.15-14.15h-14.15c-7.82,0-14.15-6.34-14.15-14.15h0c0-7.82,6.34-14.15,14.15-14.15h14.15c7.82,0,14.15-6.34,14.15-14.15v-14.15c0-7.82,6.34-14.15,14.15-14.15h0c7.82,0,14.15,6.34,14.15,14.15v14.15c0,7.82,6.34,14.15,14.15,14.15h14.15c7.82,0,14.15,6.34,14.15,14.15Z"/>
  </g>
  <g class="cls-3">
    <circle cx="394.33" cy="154.83" r="17.23"/>
  </g>
  <g class="cls-2">
    <circle cx="394.33" cy="224.23" r="17.23"/>
  </g>
  <g class="cls-5">
    <circle cx="429.03" cy="189.53" r="17.23"/>
  </g>
  <g class="cls-4">
    <circle cx="359.09" cy="188.96" r="17.23"/>
  </g>
  <line class="cls-8" x1="262.04" y1="35.86" x2="262.04"/>
      <g class="cls-11" transform="translate(560 253.56)">
      <path class="cls-10" d="M46.9 -35.2Q46.9 -29.8 50.3 -27.4Q53.8 -25.1 60.1 -25.1Q63.3 -25.1 66.7 -25.6Q70.1 -26.2 72.6 -27Q74.5 -24.7 75.9 -21.8Q77.2 -19 77.2 -15Q77.2 -7 71.2 -1.9Q65.2 3.2 50 3.2Q31.4 3.2 21.4 -5.3Q11.4 -13.7 11.4 -32.7V-123Q13.7 -123.7 18 -124.4Q22.4 -125.1 27.2 -125.1Q36.5 -125.1 41.7 -121.9Q46.9 -118.6 46.9 -108.1V-94.5H74.5Q75.8 -92.2 76.9 -88.7Q78.1 -85.3 78.1 -81Q78.1 -73.7 74.8 -70.4Q71.5 -67.1 66.1 -67.1H46.9Z"/>
      <path class="cls-9" d="M148.4 3.4Q135.9 3.4 125.3 -0.1Q114.6 -3.6 106.7 -10.6Q98.8 -17.5 94.2 -28.1Q89.7 -38.6 89.7 -52.8Q89.7 -66.7 94.2 -76.7Q98.8 -86.7 106.2 -93.2Q113.5 -99.6 123 -102.7Q132.5 -105.7 142.5 -105.7Q153.6 -105.7 162.8 -102.4Q172 -99 178.6 -93.1Q185.3 -87.2 189 -78.9Q192.7 -70.7 192.7 -61Q192.7 -53.8 188.7 -50Q184.7 -46.2 177.5 -45.2L125.4 -37.4Q127.7 -30.4 134.9 -26.9Q142 -23.4 151.3 -23.4Q160 -23.4 167.7 -25.6Q175.4 -27.9 180.2 -30.8Q183.6 -28.7 185.9 -24.9Q188.2 -21.1 188.2 -16.9Q188.2 -7.4 179.4 -2.7Q172.6 0.8 164.2 2.1Q155.7 3.4 148.4 3.4ZM142.5 -79.6Q137.4 -79.6 133.7 -77.9Q130 -76.2 127.7 -73.5Q125.4 -70.9 124.2 -67.6Q123 -64.4 122.8 -61L158.9 -66.9Q158.3 -71.1 154.3 -75.3Q150.3 -79.6 142.5 -79.6ZM267.8 -77.5Q262.5 -77.5 257.8 -75.8Q253 -74.1 249.6 -70.8Q246.1 -67.5 244 -62.7Q241.9 -57.8 241.9 -51.3Q241.9 -38.2 249.3 -31.7Q256.8 -25.1 267.6 -25.1Q273.9 -25.1 278.6 -26.6Q283.2 -28.1 286.8 -29.8Q291 -26.8 293.1 -23.3Q295.2 -19.8 295.2 -15Q295.2 -6.3 287 -1.6Q278.8 3.2 264.2 3.2Q250.9 3.2 240.2 -0.7Q229.4 -4.6 221.7 -11.7Q214 -18.8 209.8 -28.7Q205.6 -38.6 205.6 -50.6Q205.6 -64.6 210.1 -75Q214.6 -85.5 222.4 -92.2Q230.2 -99 240.5 -102.4Q250.7 -105.7 262.1 -105.7Q277.3 -105.7 285.5 -100.2Q293.8 -94.8 293.8 -86.1Q293.8 -82.1 291.9 -78.6Q290 -75.1 287.4 -72.6Q283.8 -74.3 278.8 -75.9Q273.7 -77.5 267.8 -77.5ZM414.5 -0.2Q412.4 0.4 407.8 1.1Q403.3 1.7 398.4 1.7Q393.8 1.7 390.1 1.1Q386.4 0.4 383.9 -1.5Q381.3 -3.4 380 -6.6Q378.6 -9.9 378.6 -15.2V-62Q378.6 -70.7 374.3 -74.2Q370 -77.7 363.6 -77.7Q359.4 -77.7 355.6 -76.6Q351.8 -75.6 349.5 -74.1V-0.2Q347.4 0.4 342.8 1.1Q338.3 1.7 333.4 1.7Q328.8 1.7 325.1 1.1Q321.4 0.4 318.9 -1.5Q316.3 -3.4 315 -6.6Q313.6 -9.9 313.6 -15.2V-137.6Q315.9 -138 320.5 -138.8Q325 -139.5 329.6 -139.5Q334.3 -139.5 338 -138.9Q341.7 -138.2 344.2 -136.3Q346.7 -134.4 348.1 -131.2Q349.5 -127.9 349.5 -122.6V-101.9Q352.2 -103 357.8 -104.4Q363.4 -105.7 370.2 -105.7Q391.1 -105.7 402.8 -95.3Q414.5 -84.8 414.5 -64.2ZM501.6 -65Q501.6 -71.5 497.9 -74.6Q494.3 -77.7 487.9 -77.7Q483.7 -77.7 479.6 -76.6Q475.5 -75.6 472.5 -73.4V-0.2Q470.4 0.4 465.9 1.1Q461.3 1.7 456.5 1.7Q451.8 1.7 448.1 1.1Q444.5 0.4 441.9 -1.5Q439.4 -3.4 438 -6.6Q436.6 -9.9 436.6 -15.2V-78.5Q436.6 -84.2 439.1 -87.8Q441.5 -91.4 445.7 -94.3Q452.9 -99.4 463.8 -102.6Q474.6 -105.7 487.9 -105.7Q511.8 -105.7 524.6 -95.3Q537.5 -84.8 537.5 -66.3V-0.2Q535.4 0.4 530.9 1.1Q526.3 1.7 521.5 1.7Q516.8 1.7 513.1 1.1Q509.5 0.4 506.9 -1.5Q504.4 -3.4 503 -6.6Q501.6 -9.9 501.6 -15.2ZM558.8 -131.1Q558.8 -139.1 564.2 -144.6Q569.6 -150 578.5 -150Q587.3 -150 592.7 -144.6Q598.1 -139.1 598.1 -131.1Q598.1 -123 592.7 -117.5Q587.3 -112.1 578.5 -112.1Q569.6 -112.1 564.2 -117.5Q558.8 -123 558.8 -131.1ZM596.4 -0.2Q594.1 0.2 589.5 0.9Q585 1.7 580.4 1.7Q575.7 1.7 572 1.1Q568.3 0.4 565.8 -1.5Q563.3 -3.4 561.9 -6.6Q560.5 -9.9 560.5 -15.2V-101.1Q562.8 -101.5 567.4 -102.2Q571.9 -103 576.6 -103Q581.2 -103 584.9 -102.4Q588.6 -101.7 591.1 -99.8Q593.7 -97.9 595 -94.7Q596.4 -91.4 596.4 -86.1ZM677 -77.5Q671.7 -77.5 667 -75.8Q662.2 -74.1 658.8 -70.8Q655.3 -67.5 653.2 -62.7Q651.1 -57.8 651.1 -51.3Q651.1 -38.2 658.6 -31.7Q666 -25.1 676.8 -25.1Q683.1 -25.1 687.8 -26.6Q692.4 -28.1 696 -29.8Q700.2 -26.8 702.3 -23.3Q704.5 -19.8 704.5 -15Q704.5 -6.3 696.2 -1.6Q688 3.2 673.4 3.2Q660.1 3.2 649.4 -0.7Q638.6 -4.6 630.9 -11.7Q623.2 -18.8 619 -28.7Q614.8 -38.6 614.8 -50.6Q614.8 -64.6 619.3 -75Q623.8 -85.5 631.6 -92.2Q639.5 -99 649.7 -102.4Q659.9 -105.7 671.3 -105.7Q686.5 -105.7 694.7 -100.2Q703 -94.8 703 -86.1Q703 -82.1 701.1 -78.6Q699.2 -75.1 696.6 -72.6Q693.1 -74.3 688 -75.9Q682.9 -77.5 677 -77.5Z"/>
      <path class="cls-6" d="M772.4 -105.7Q784.4 -105.7 794.3 -102.7Q804.1 -99.6 810.8 -94.8Q815 -91.8 817.5 -88.2Q819.9 -84.6 819.9 -78.9V-5.1Q819.9 6.1 815.7 14.2Q811.5 22.4 804.2 27.8Q796.9 33.1 787.1 35.7Q777.3 38.2 766.1 38.2Q746.9 38.2 735.9 33Q724.9 27.9 724.9 16.3Q724.9 11.4 726.9 7.7Q728.9 4 731.5 2.1Q737.6 5.5 745.3 7.8Q753 10.1 761.2 10.1Q772.6 10.1 779.4 6.3Q786.1 2.5 786.1 -5.9V-9.3Q777.5 -5.5 765 -5.5Q755.5 -5.5 747 -8.3Q738.4 -11.2 732 -17.2Q725.6 -23.2 721.7 -32.7Q717.8 -42.2 717.8 -55.3Q717.8 -68.2 721.9 -77.7Q726 -87.2 733.3 -93.4Q740.5 -99.6 750.6 -102.7Q760.6 -105.7 772.4 -105.7ZM785.5 -75.1Q784 -76 781.2 -76.8Q778.3 -77.7 774.1 -77.7Q763.8 -77.7 758.6 -71.9Q753.4 -66.1 753.4 -55.3Q753.4 -43.1 758.6 -37.7Q763.8 -32.3 771.8 -32.3Q780.4 -32.3 785.5 -36.3ZM886 -22.8Q889.5 -22.8 893.9 -23.5Q898.2 -24.3 900.3 -25.5V-42.4L885.1 -41.2Q879.2 -40.7 875.4 -38.6Q871.6 -36.5 871.6 -32.3Q871.6 -28.1 874.9 -25.4Q878.1 -22.8 886 -22.8ZM884.3 -105.7Q895.7 -105.7 905 -103.4Q914.4 -101.1 921.1 -96.3Q927.7 -91.6 931.3 -84.3Q934.9 -77 934.9 -67.1V-19.8Q934.9 -14.4 931.9 -10.9Q928.8 -7.4 924.6 -4.9Q910.9 3.4 886 3.4Q874.8 3.4 865.8 1.3Q856.8 -0.8 850.4 -5.1Q844 -9.3 840.5 -15.8Q837 -22.4 837 -31Q837 -45.6 845.6 -53.4Q854.3 -61.2 872.4 -63.1L900.1 -66.1V-67.5Q900.1 -73.7 894.7 -76.3Q889.3 -78.9 879.2 -78.9Q871.2 -78.9 863.6 -77.2Q856 -75.6 849.9 -73Q847.1 -74.9 845.2 -78.8Q843.3 -82.7 843.3 -86.9Q843.3 -92.4 846 -95.7Q848.6 -99 854.1 -101.3Q860.2 -103.6 868.5 -104.7Q876.9 -105.7 884.3 -105.7ZM1006 -105.7Q1014.7 -105.7 1023 -103.3Q1031.4 -100.9 1037.5 -96Q1043.8 -100.2 1051.7 -103Q1059.6 -105.7 1070.8 -105.7Q1078.8 -105.7 1086.5 -103.6Q1094.2 -101.5 1100.3 -97Q1106.3 -92.4 1109.9 -84.9Q1113.5 -77.5 1113.5 -66.7V-0.2Q1111.3 0.4 1106.8 1.1Q1102.3 1.7 1097.4 1.7Q1092.8 1.7 1089.1 1.1Q1085.4 0.4 1082.9 -1.5Q1080.3 -3.4 1078.9 -6.6Q1077.6 -9.9 1077.6 -15.2V-65.6Q1077.6 -72 1074 -74.8Q1070.4 -77.7 1064.3 -77.7Q1061.3 -77.7 1057.9 -76.3Q1054.6 -74.9 1052.9 -73.4Q1053.1 -72.6 1053.1 -71.9Q1053.1 -71.1 1053.1 -70.5V-0.2Q1050.8 0.4 1046.2 1.1Q1041.7 1.7 1037.1 1.7Q1032.4 1.7 1028.7 1.1Q1025 0.4 1022.5 -1.5Q1020 -3.4 1018.6 -6.6Q1017.2 -9.9 1017.2 -15.2V-65.6Q1017.2 -72 1013.3 -74.8Q1009.4 -77.7 1003.9 -77.7Q1000.1 -77.7 997.4 -76.5Q994.6 -75.3 992.7 -74.3V-0.2Q990.6 0.4 986.1 1.1Q981.6 1.7 976.7 1.7Q972.1 1.7 968.4 1.1Q964.7 0.4 962.1 -1.5Q959.6 -3.4 958.2 -6.6Q956.9 -9.9 956.9 -15.2V-78.9Q956.9 -84.6 959.3 -88Q961.7 -91.4 965.9 -94.3Q973.1 -99.4 983.8 -102.6Q994.4 -105.7 1006 -105.7ZM1189.6 3.4Q1177.2 3.4 1166.5 -0.1Q1155.9 -3.6 1148 -10.6Q1140 -17.5 1135.5 -28.1Q1131 -38.6 1131 -52.8Q1131 -66.7 1135.5 -76.7Q1140 -86.7 1147.4 -93.2Q1154.8 -99.6 1164.3 -102.7Q1173.8 -105.7 1183.7 -105.7Q1194.9 -105.7 1204.1 -102.4Q1213.3 -99 1219.9 -93.1Q1226.6 -87.2 1230.3 -78.9Q1234 -70.7 1234 -61Q1234 -53.8 1229.9 -50Q1225.9 -46.2 1218.8 -45.2L1166.6 -37.4Q1169 -30.4 1176.1 -26.9Q1183.3 -23.4 1192.6 -23.4Q1201.2 -23.4 1208.9 -25.6Q1216.6 -27.9 1221.5 -30.8Q1224.9 -28.7 1227.2 -24.9Q1229.5 -21.1 1229.5 -16.9Q1229.5 -7.4 1220.7 -2.7Q1213.9 0.8 1205.5 2.1Q1197 3.4 1189.6 3.4ZM1183.7 -79.6Q1178.7 -79.6 1175 -77.9Q1171.3 -76.2 1169 -73.5Q1166.6 -70.9 1165.5 -67.6Q1164.3 -64.4 1164.1 -61L1200.2 -66.9Q1199.6 -71.1 1195.5 -75.3Q1191.5 -79.6 1183.7 -79.6ZM1337.8 -30.6Q1337.8 -14.6 1325.8 -5.5Q1313.7 3.6 1290.3 3.6Q1281.4 3.6 1273.8 2.3Q1266.2 1.1 1260.9 -1.6Q1255.5 -4.2 1252.4 -8.2Q1249.4 -12.2 1249.4 -17.7Q1249.4 -22.8 1251.5 -26.3Q1253.6 -29.8 1256.5 -32.1Q1262.7 -28.7 1270.6 -26.1Q1278.5 -23.4 1288.8 -23.4Q1295.4 -23.4 1298.8 -25.3Q1302.3 -27.2 1302.3 -30.4Q1302.3 -33.3 1299.8 -35Q1297.3 -36.7 1291.4 -37.8L1285 -39Q1266.7 -42.6 1257.7 -50.3Q1248.7 -58 1248.7 -72.4Q1248.7 -80.2 1252.1 -86.5Q1255.5 -92.9 1261.6 -97.1Q1267.7 -101.3 1276.3 -103.6Q1284.8 -105.9 1295.2 -105.9Q1303 -105.9 1309.8 -104.8Q1316.7 -103.6 1321.7 -101.3Q1326.8 -99 1329.8 -95.3Q1332.7 -91.6 1332.7 -86.5Q1332.7 -81.7 1330.9 -78.2Q1329.1 -74.7 1326.4 -72.4Q1324.7 -73.4 1321.3 -74.6Q1317.9 -75.8 1313.9 -76.7Q1309.9 -77.7 1305.8 -78.3Q1301.7 -78.9 1298.3 -78.9Q1291.4 -78.9 1287.6 -77.3Q1283.8 -75.8 1283.8 -72.4Q1283.8 -70.1 1285.9 -68.6Q1288 -67.1 1293.9 -65.8L1300.4 -64.4Q1320.7 -59.7 1329.2 -51.6Q1337.8 -43.5 1337.8 -30.6Z"/>
    </g>
</svg>