<svg xmlns="http://www.w3.org/2000/svg" viewBox="0 0 323.9 60.0" width="323.9" height="60.0" role="img" aria-label="Technic Games">
  <!--
    SAMPLE studio logo for Technic Games.
    Original geometry + DejaVu Sans Bold outlines (Bitstream Vera license,
    free for commercial use). Text is converted to paths, so this renders
    identically everywhere with no font loading. Replace with your real
    logo when you have one.
    Mark: the ascending fruit tier — strawberry, lemon, lime.
  -->
  <defs>
    <linearGradient id="tg-mark" x1="0" y1="0" x2="0" y2="1">
      <stop offset="0" stop-color="#5B3A64"/>
      <stop offset="1" stop-color="#3A2A3F"/>
    </linearGradient>
  </defs>

  <g>
    <rect x="2" y="2" width="56.0" height="56.0" rx="16" fill="url(#tg-mark)"/>
    <circle cx="14" cy="35.5" r="5"    fill="#F0476B"/>
    <circle cx="27" cy="33"   r="7.5"  fill="#F6C445"/>
    <circle cx="41" cy="30"   r="10.5" fill="#4FAE3E"/>
  </g>

  <g transform="translate(72.0 40.50) scale(0.014066 -0.014066)">
    <path d="M10 1493H1386V1202H891V0H506V1202H10ZM2662 563V461H1825Q1838 335 1916 272Q1994 209 2134 209Q2247 209 2366 242Q2484 276 2609 344V68Q2482 20 2355 -4Q2228 -29 2101 -29Q1797 -29 1629 126Q1460 280 1460 559Q1460 833 1626 990Q1791 1147 2081 1147Q2345 1147 2504 988Q2662 829 2662 563ZM2294 682Q2294 784 2235 846Q2175 909 2079 909Q1975 909 1910 850Q1845 792 1829 682ZM3814 1085V793Q3741 843 3667 867Q3594 891 3515 891Q3365 891 3281 804Q3198 716 3198 559Q3198 402 3281 314Q3365 227 3515 227Q3599 227 3674 252Q3750 277 3814 326V33Q3730 2 3643 -14Q3557 -29 3470 -29Q3167 -29 2996 126Q2825 282 2825 559Q2825 836 2996 992Q3167 1147 3470 1147Q3558 1147 3643 1132Q3729 1116 3814 1085ZM5224 682V0H4864V111V520Q4864 667 4858 722Q4851 777 4835 803Q4814 838 4778 858Q4742 877 4696 877Q4584 877 4520 790Q4456 704 4456 551V0H4098V1556H4456V956Q4537 1054 4628 1100Q4719 1147 4829 1147Q5023 1147 5124 1028Q5224 909 5224 682ZM6658 682V0H6298V111V522Q6298 667 6291 722Q6285 777 6269 803Q6248 838 6212 858Q6176 877 6130 877Q6018 877 5954 790Q5890 704 5890 551V0H5532V1120H5890V956Q5971 1054 6062 1100Q6153 1147 6263 1147Q6457 1147 6557 1028Q6658 909 6658 682ZM6965 1120H7323V0H6965ZM6965 1556H7323V1264H6965ZM8548 1085V793Q8475 843 8401 867Q8328 891 8249 891Q8099 891 8015 804Q7932 716 7932 559Q7932 402 8015 314Q8099 227 8249 227Q8333 227 8408 252Q8484 277 8548 326V33Q8464 2 8377 -14Q8291 -29 8204 -29Q7901 -29 7730 126Q7559 282 7559 559Q7559 836 7730 992Q7901 1147 8204 1147Q8292 1147 8377 1132Q8463 1116 8548 1085ZM10878 111Q10734 41 10579 6Q10424 -29 10259 -29Q9886 -29 9668 180Q9450 388 9450 745Q9450 1106 9672 1313Q9894 1520 10280 1520Q10429 1520 10566 1492Q10702 1464 10823 1409V1100Q10698 1171 10575 1206Q10451 1241 10327 1241Q10097 1241 9973 1112Q9848 984 9848 745Q9848 508 9968 379Q10088 250 10309 250Q10369 250 10421 258Q10472 265 10513 281V571H10278V829H10878ZM11679 504Q11567 504 11510 466Q11454 428 11454 354Q11454 286 11499 248Q11545 209 11626 209Q11727 209 11796 282Q11865 354 11865 463V504ZM12226 639V0H11865V166Q11793 64 11703 18Q11613 -29 11484 -29Q11310 -29 11201 72Q11093 174 11093 336Q11093 533 11228 625Q11364 717 11654 717H11865V745Q11865 830 11798 870Q11731 909 11589 909Q11474 909 11375 886Q11276 863 11191 817V1090Q11306 1118 11422 1132Q11538 1147 11654 1147Q11957 1147 12091 1028Q12226 908 12226 639ZM13572 934Q13640 1038 13734 1092Q13827 1147 13939 1147Q14132 1147 14233 1028Q14334 909 14334 682V0H13974V584Q13975 597 13976 611Q13976 625 13976 651Q13976 770 13941 824Q13906 877 13828 877Q13726 877 13671 793Q13615 709 13613 550V0H13253V584Q13253 770 13221 824Q13189 877 13107 877Q13004 877 12948 792Q12892 708 12892 551V0H12532V1120H12892V956Q12958 1051 13044 1099Q13129 1147 13232 1147Q13348 1147 13437 1091Q13526 1035 13572 934ZM15762 563V461H14925Q14938 335 15016 272Q15094 209 15234 209Q15347 209 15465 242Q15584 276 15709 344V68Q15582 20 15455 -4Q15328 -29 15201 -29Q14897 -29 14728 126Q14560 280 14560 559Q14560 833 14725 990Q14891 1147 15181 1147Q15445 1147 15603 988Q15762 829 15762 563ZM15394 682Q15394 784 15334 846Q15275 909 15179 909Q15075 909 15010 850Q14945 792 14929 682ZM16883 1085V813Q16768 861 16661 885Q16554 909 16459 909Q16357 909 16308 884Q16258 858 16258 805Q16258 762 16296 739Q16333 716 16430 705L16493 696Q16768 661 16863 581Q16958 501 16958 330Q16958 151 16826 61Q16694 -29 16432 -29Q16321 -29 16203 -12Q16084 6 15959 41V313Q16066 261 16179 235Q16291 209 16407 209Q16512 209 16565 238Q16618 267 16618 324Q16618 372 16582 396Q16545 419 16436 432L16373 440Q16134 470 16038 551Q15942 632 15942 797Q15942 975 16064 1061Q16186 1147 16438 1147Q16537 1147 16646 1132Q16755 1117 16883 1085Z" fill="#3A2A3F" stroke="#3A2A3F" stroke-width="64.0"
          stroke-linejoin="round" stroke-linecap="round"/>
  </g>
</svg>
